<svg width="45" height="44" viewBox="0 0 45 44" fill="none" xmlns="http://www.w3.org/2000/svg">
<path d="M22.2793 3C11.8027 3 3.2793 11.5228 3.2793 22C3.2793 25.6862 4.3363 29.24 6.34268 32.3263L3.38197 39.2348C3.17786 39.7098 3.28424 40.2628 3.65039 40.6289C3.89284 40.8714 4.21693 41 4.54596 41C4.71419 41 4.88428 40.9666 5.04508 40.8973L11.9536 37.936C15.0393 39.9436 18.5931 41 22.2793 41C32.7565 41 41.2793 32.4772 41.2793 22C41.2793 11.5228 32.7565 3 22.2793 3ZM32.0316 28.8009C32.0316 28.8009 30.452 30.8271 29.3103 31.3008C26.4083 32.502 22.3115 31.3008 17.6443 26.635C12.9785 21.9678 11.7767 17.871 12.9785 14.969C13.4522 13.826 15.4784 12.2477 15.4784 12.2477C16.0276 11.8197 16.8811 11.8729 17.3734 12.3652L19.6656 14.6573C20.1579 15.1496 20.1579 15.9561 19.6656 16.4484L18.227 17.8858C18.227 17.8858 17.6443 19.6349 21.1437 23.1355C24.6432 26.635 26.3935 26.0523 26.3935 26.0523L27.8309 24.6137C28.3232 24.1214 29.1297 24.1214 29.622 24.6137L31.9141 26.9059C32.4064 27.3982 32.4596 28.2505 32.0316 28.8009Z" fill="#282828"/>
</svg>
